<svg xmlns="http://www.w3.org/2000/svg">
    <defs>
        <symbol id="question">
            <path fill-rule="evenodd" clip-rule="evenodd" d="M12 3C7.02944 3 3 7.02944 3 12C3 16.9706 7.02944 21 12 21C16.9706 21 21 16.9706 21 12C21 7.02944 16.9706 3 12 3ZM1 12C1 5.92487 5.92487 1 12 1C18.0751 1 23 5.92487 23 12C23 18.0751 18.0751 23 12 23C5.92487 23 1 18.0751 1 12Z" fill="#212429"/>
            <path fill-rule="evenodd" clip-rule="evenodd" d="M12.2582 8.02428C11.7927 7.94443 11.314 8.03191 10.9068 8.27123C10.4996 8.51054 10.1902 8.88625 10.0335 9.3318C9.85018 9.85279 9.27926 10.1266 8.75827 9.9433C8.23728 9.76002 7.96351 9.18911 8.14678 8.66812C8.46025 7.77701 9.07898 7.02559 9.89339 6.54696C10.7078 6.06833 11.6653 5.89337 12.5964 6.05307C13.5274 6.21277 14.3719 6.69682 14.9802 7.41949C15.5884 8.14201 15.9214 9.05644 15.9201 10.0009C15.9197 11.5312 14.7851 12.5419 13.9748 13.082C13.5392 13.3724 13.1107 13.586 12.795 13.7263C12.6358 13.7971 12.5016 13.8508 12.405 13.8876C12.3566 13.906 12.3174 13.9203 12.2888 13.9305L12.2541 13.9426L12.243 13.9464L12.2391 13.9477L12.2376 13.9482C12.2373 13.9483 12.2363 13.9486 11.9201 13L12.2363 13.9486C11.7124 14.1233 11.1461 13.8401 10.9714 13.3162C10.7969 12.7926 11.0796 12.2267 11.6028 12.0516L11.6016 12.0521C11.6017 12.052 11.6018 12.052 11.6028 12.0516L11.6188 12.046C11.6342 12.0406 11.6594 12.0314 11.693 12.0186C11.7605 11.9929 11.8607 11.9529 11.9827 11.8986C12.2296 11.7889 12.551 11.6275 12.8654 11.4179C13.555 10.9582 13.9201 10.4691 13.9201 9.99996L13.9201 9.99847C13.9208 9.52615 13.7543 9.06883 13.4502 8.70749C13.146 8.34615 12.7238 8.10413 12.2582 8.02428Z" fill="#212429"/>
            <path fill-rule="evenodd" clip-rule="evenodd" d="M12 15C12.5523 15 13 15.4477 13 16V16.5C13 17.0523 12.5523 17.5 12 17.5C11.4477 17.5 11 17.0523 11 16.5V16C11 15.4477 11.4477 15 12 15Z" fill="#212429"/>
        </symbol>
        <symbol id="arrow">
            <path fill-rule="evenodd" clip-rule="evenodd" d="M0.292893 0.292893C0.683417 -0.0976311 1.31658 -0.0976311 1.70711 0.292893L9 7.58579L16.2929 0.292893C16.6834 -0.0976311 17.3166 -0.0976311 17.7071 0.292893C18.0976 0.683417 18.0976 1.31658 17.7071 1.70711L9.70711 9.70711C9.31658 10.0976 8.68342 10.0976 8.29289 9.70711L0.292893 1.70711C-0.0976311 1.31658 -0.0976311 0.683417 0.292893 0.292893Z" fill="#212429"/>
        </symbol>
    </defs>
    <defs>
        <symbol id="cross">
            <path fill-rule="evenodd" clip-rule="evenodd" d="M0.528606 0.528606C0.788955 0.268256 1.21107 0.268256 1.47141 0.528606L9.47141 8.52861C9.73176 8.78896 9.73176 9.21107 9.47141 9.47141C9.21107 9.73176 8.78896 9.73176 8.52861 9.47141L0.528606 1.47141C0.268256 1.21107 0.268256 0.788955 0.528606 0.528606Z" fill="#495057"/>
            <path fill-rule="evenodd" clip-rule="evenodd" d="M9.47141 0.528606C9.73176 0.788955 9.73176 1.21107 9.47141 1.47141L1.47141 9.47141C1.21107 9.73176 0.788955 9.73176 0.528606 9.47141C0.268256 9.21107 0.268256 8.78896 0.528606 8.52861L8.52861 0.528606C8.78896 0.268256 9.21107 0.268256 9.47141 0.528606Z" fill="#495057"/>
        </symbol>
    </defs>
</svg>